# xmcd CD database file
#
# Track frame offsets:
#	150
#	16192
#	38207
#	55787
#	73937
#	97104
#	117410
#	135080
#	154752
#	165150
#	184400
#
# Disc length: 2760 seconds
#
# Revision: 4
# Processed by: cddbd v1.5.2PL0 Copyright (c) Steve Scherf et al.
# Submitted via: jetAudio 7
#
DISCID=8b0ac60b
DTITLE=??? - LOVE PUNCH
DYEAR=1900
DGENRE=Blues
TTITLE0=pretty voice
TTITLE1=?????
TTITLE2=?????
TTITLE3=GIRLY
TTITLE4=?????????
TTITLE5=?????
TTITLE6=????????
TTITLE7=???????
TTITLE8=???
TTITLE9=????
TTITLE10=Always Together
EXTD=
EXTT0=
EXTT1=
EXTT2=
EXTT3=
EXTT4=
EXTT5=
EXTT6=
EXTT7=
EXTT8=
EXTT9=
EXTT10=
PLAYORDER=
